<svg width="44" height="44" viewBox="0 0 44 44" fill="none" xmlns="http://www.w3.org/2000/svg">
<g id="python-5 1" clip-path="url(#clip0_2_144)">
<path id="Vector" d="M21.8116 0.0124512C10.6697 0.0124512 11.3654 4.86367 11.3654 4.86367L11.3777 9.88967H22.0103V11.3986H7.15464C7.15464 11.3986 0.0249023 10.5868 0.0249023 21.8741C0.0249023 33.1617 6.24791 32.7614 6.24791 32.7614H9.96178V27.5235C9.96178 27.5235 9.76156 21.2755 16.0855 21.2755H26.6311C26.6311 21.2755 32.5559 21.3716 32.5559 15.5263V5.86152C32.5559 5.86152 33.4557 0.0124512 21.8116 0.0124512ZM15.9488 3.39234C16.2001 3.39211 16.4489 3.44163 16.6811 3.53807C16.9133 3.6345 17.1242 3.77595 17.3019 3.95433C17.4795 4.1327 17.6204 4.34451 17.7165 4.57761C17.8125 4.81072 17.8618 5.06055 17.8616 5.31281C17.8618 5.56508 17.8125 5.81491 17.7165 6.04801C17.6204 6.28112 17.4795 6.49292 17.3019 6.6713C17.1242 6.84967 16.9133 6.99113 16.6811 7.08756C16.4489 7.18399 16.2001 7.23351 15.9488 7.23328C15.6976 7.23351 15.4487 7.18399 15.2166 7.08756C14.9844 6.99113 14.7734 6.84967 14.5958 6.6713C14.4181 6.49292 14.2772 6.28112 14.1812 6.04801C14.0851 5.81491 14.0358 5.56508 14.036 5.31281C14.0358 5.06055 14.0851 4.81072 14.1812 4.57761C14.2772 4.34451 14.4181 4.1327 14.5958 3.95433C14.7734 3.77595 14.9844 3.6345 15.2166 3.53807C15.4487 3.44163 15.6976 3.39211 15.9488 3.39234Z" fill="url(#paint0_linear_2_144)"/>
<path id="Vector_2" d="M22.1281 43.8492C33.27 43.8492 32.5743 38.998 32.5743 38.998L32.5619 33.9722H21.9292V32.4632H36.7849C36.7849 32.4632 43.9146 33.2751 43.9146 21.9874C43.9146 10.7 37.6916 11.1003 37.6916 11.1003H33.9777V16.338C33.9777 16.338 34.1779 22.586 27.854 22.586H17.3084C17.3084 22.586 11.3836 22.4899 11.3836 28.3353V38.0003C11.3836 38.0003 10.4839 43.8492 22.1279 43.8492H22.1281ZM27.9908 40.4697C27.7396 40.4699 27.4908 40.4204 27.2586 40.3239C27.0264 40.2275 26.8155 40.0861 26.6378 39.9077C26.4601 39.7293 26.3192 39.5175 26.2232 39.2844C26.1272 39.0513 26.0778 38.8015 26.0781 38.5492C26.0778 38.2969 26.1271 38.0471 26.2231 37.8139C26.3192 37.5808 26.4601 37.369 26.6377 37.1906C26.8154 37.0122 27.0264 36.8707 27.2585 36.7743C27.4907 36.6778 27.7396 36.6283 27.9908 36.6285C28.2421 36.6283 28.4909 36.6778 28.7231 36.7743C28.9553 36.8707 29.1662 37.0122 29.3439 37.1905C29.5216 37.3689 29.6624 37.5807 29.7585 37.8138C29.8545 38.0469 29.9039 38.2968 29.9036 38.549C29.9039 38.8013 29.8545 39.0511 29.7585 39.2842C29.6624 39.5173 29.5216 39.7291 29.3439 39.9075C29.1662 40.0859 28.9553 40.2273 28.7231 40.3238C28.4909 40.4202 28.2421 40.4697 27.9908 40.4695V40.4697Z" fill="url(#paint1_linear_2_144)"/>
</g>
<defs>
<linearGradient id="paint0_linear_2_144" x1="4.24268" y1="3.95531" x2="26.0794" y2="25.4877" gradientUnits="userSpaceOnUse">
<stop stop-color="#387EB8"/>
<stop offset="1" stop-color="#366994"/>
</linearGradient>
<linearGradient id="paint1_linear_2_144" x1="17.5931" y1="17.8383" x2="41.0388" y2="39.9136" gradientUnits="userSpaceOnUse">
<stop stop-color="#FFE052"/>
<stop offset="1" stop-color="#FFC331"/>
</linearGradient>
<clipPath id="clip0_2_144">
<rect width="44" height="44" fill="white"/>
</clipPath>
</defs>
</svg>
